<?xml version="1.0" encoding="UTF-8"?>
<svg xmlns="http://www.w3.org/2000/svg"
    xmlns:xlink="http://www.w3.org/1999/xlink" viewBox="0 0 600 259.48">
    <defs>
        <style>.cls-1{fill:none;}.cls-2{fill:#272154;}.cls-3{fill:#8060ed;}.cls-4{fill:#f8bf2e;}.cls-5{fill:url(#linear-gradient);}</style>
        <linearGradient id="linear-gradient" x1="25.68" y1="191.74" x2="149.69" y2="67.73" gradientUnits="userSpaceOnUse">
            <stop offset="0" stop-color="#f86e36" stop-opacity="0.3"></stop>
            <stop offset="1" stop-color="#f86e36"></stop>
        </linearGradient>
    </defs>
    <title>Loyale Logo Dark RGB</title>
    <g id="Layer_2" data-name="Layer 2">
        <g id="Layer_1-2" data-name="Layer 1">
            <rect shape-rendering="geometricPrecision" class="cls-1" width="600" height="259.48"></rect>
            <path shape-rendering="geometricPrecision" class="cls-2" d="M237.75,165.08a3.22,3.22,0,0,1-1-2.37V70.23a3.19,3.19,0,0,1,1-2.45,3.4,3.4,0,0,1,2.38-.91h11.73a3.14,3.14,0,0,1,3.35,3.36v92.48a3.38,3.38,0,0,1-.91,2.37,3.15,3.15,0,0,1-2.44,1H240.13A3.21,3.21,0,0,1,237.75,165.08Z"></path>
            <path shape-rendering="geometricPrecision" class="cls-2" d="M277.57,159.08q-8.94-8.39-9.63-23.19l-.14-6.15.14-6.15q.69-14.67,9.77-23.12T303,92q16.06,0,25.13,8.45t9.78,23.12q.14,1.68.14,6.15t-.14,6.15q-.7,14.81-9.64,23.19T303,167.46Q286.51,167.46,277.57,159.08Zm36.79-10.34q4-4.62,4.26-13.55c.09-.93.14-2.75.14-5.45s-.05-4.52-.14-5.45q-.28-8.94-4.33-13.62T303,106q-7.39,0-11.45,4.68t-4.32,13.62l-.14,5.45.14,5.45q.27,8.94,4.32,13.55T303,153.35Q310.39,153.35,314.36,148.74Z"></path>
            <path shape-rendering="geometricPrecision" class="cls-2" d="M359,191.77a2.59,2.59,0,0,1-.91-2,5.61,5.61,0,0,1,.56-2.23l11-25.85L342.87,98.45a5.35,5.35,0,0,1-.56-2,3.77,3.77,0,0,1,1-2.17,2.75,2.75,0,0,1,2.1-.9H357a3.76,3.76,0,0,1,3.63,2.65l18.57,45.54L398,96.07a4.3,4.3,0,0,1,3.91-2.65h11.31a2.84,2.84,0,0,1,2.09.83,2.7,2.7,0,0,1,.84,2,5.53,5.53,0,0,1-.56,2.24L376.1,190a3.94,3.94,0,0,1-3.91,2.65H361A2.93,2.93,0,0,1,359,191.77Z"></path>
            <path shape-rendering="geometricPrecision" class="cls-2" d="M431.29,164.59a23.61,23.61,0,0,1-9.36-7.75,19,19,0,0,1,4.26-26.12q7.68-5.88,21.08-8L466.4,120V117q0-6-3.07-9.08t-9.78-3.08a14.21,14.21,0,0,0-7.39,1.68,23.42,23.42,0,0,0-4.54,3.42l-2.31,2.31a2.11,2.11,0,0,1-2.09,1.67H426.33a3.1,3.1,0,0,1-2.17-.84,2.89,2.89,0,0,1-.9-2.23q.14-3.5,3.42-7.89T436.8,95.3Q443.64,92,453.69,92q16.49,0,24,7.4t7.54,19.42v43.87a3.38,3.38,0,0,1-.91,2.37,3.15,3.15,0,0,1-2.44,1H470.31a3.35,3.35,0,0,1-3.35-3.35v-5.45a22.87,22.87,0,0,1-8.66,7.33q-5.58,2.86-14,2.87A29.58,29.58,0,0,1,431.29,164.59ZM461.65,149q4.89-5,4.89-14.53v-2.8l-14,2.24q-16.06,2.52-16.06,10.76a7.8,7.8,0,0,0,3.7,6.91,15.72,15.72,0,0,0,8.87,2.45A16.77,16.77,0,0,0,461.65,149Z"></path>
            <path shape-rendering="geometricPrecision" class="cls-2" d="M501.19,165.08a3.23,3.23,0,0,1-1-2.37V70.23a3.19,3.19,0,0,1,1-2.45,3.38,3.38,0,0,1,2.37-.91h11.73a3.14,3.14,0,0,1,3.35,3.36v92.48a3.33,3.33,0,0,1-.91,2.37,3.14,3.14,0,0,1-2.44,1H503.56A3.19,3.19,0,0,1,501.19,165.08Z"></path>
            <path shape-rendering="geometricPrecision" class="cls-2" d="M540.73,158.52q-9.15-8.94-9.7-25.43l-.14-3.49q0-17.46,9.14-27.52T565.37,92Q582,92,591,102.08t9,26.82v2.93a3.24,3.24,0,0,1-1,2.38,3.41,3.41,0,0,1-2.51,1H550.16v1.11a21.68,21.68,0,0,0,4.25,12.93,13.15,13.15,0,0,0,11,5.1,15.76,15.76,0,0,0,13-6.43,8,8,0,0,1,1.95-1.89,5.84,5.84,0,0,1,2.38-.35H595a3.5,3.5,0,0,1,2.17.7,2.35,2.35,0,0,1,.91,2c0,2.23-1.33,4.87-4,7.89a32.94,32.94,0,0,1-11.38,7.89,41.21,41.21,0,0,1-17.18,3.36Q549.88,167.46,540.73,158.52Zm40-35.21V123q0-8.23-4.12-13.2a13.84,13.84,0,0,0-11.24-5c-4.74,0-8.47,1.66-11.16,5s-4.05,7.71-4.05,13.2v.28Z"></path>
            <path shape-rendering="geometricPrecision" class="cls-3" d="M175.37,93.42v87.69a36.32,36.32,0,0,1-10.63,25.68l-46.11,46.1a22.47,22.47,0,0,1-31.8,0L0,166.06H87.69a36.21,36.21,0,0,0,25.68-10.64l62-62Z"></path>
            <path shape-rendering="geometricPrecision" class="cls-4" d="M113.37,31.41A36.33,36.33,0,0,0,87.69,20.77H22.48A22.49,22.49,0,0,0,0,43.26v122.8H87.69a36.21,36.21,0,0,0,25.68-10.64l62-62h0Z"></path>
            <path shape-rendering="geometricPrecision" class="cls-5" d="M175.37,93.42h0l-62,62a36.21,36.21,0,0,1-25.68,10.64H0l62.13-62.13A36.19,36.19,0,0,1,87.69,93.42Z"></path>
        </g>
    </g>
</svg> 